<svg id="Layer_1" data-name="Layer 1" xmlns="http://www.w3.org/2000/svg" xmlns:xlink="http://www.w3.org/1999/xlink" viewBox="0 0 199.651 190.945"><defs><style>.cls-1{fill:url(#linear-gradient);}.cls-2{fill:#fff;}</style><linearGradient id="linear-gradient" x1="0.775" y1="143.558" x2="143.318" y2="1.014" gradientTransform="matrix(0.986, -0.168, -0.168, -0.986, 31.787, 171.668)" gradientUnits="userSpaceOnUse"><stop offset="0" stop-color="#f97556"/><stop offset="1" stop-color="#ff4a73"/></linearGradient></defs><title>chapters-icon-3</title><path class="cls-1" d="M15.779,19.783A73.019,73.019,0,0,0,2.835,47.444C-0.4,61.227-.334,75.565.448,89.7c2.528,45.7,25.213,95.035,75.733,100.63,33.888,3.752,65.958-9.951,88.509-34.121,28.452-30.494,55.884-92,11.874-130.458-28.421-24.835-48.954-7.726-83.8-15.839C76.44,6.112,60.092-3.225,42.954,1.133,31.78,3.977,22.643,10.9,15.779,19.783Z" transform="translate(0 0.002)"/><path class="cls-2" d="M152.993,95.473l-34.177,34.176-6.834-6.834,27.342-27.342L111.982,68.131l6.834-6.834Zm-92.665,0L87.67,122.815l-6.834,6.834L46.659,95.473,80.836,61.3l6.834,6.834Z" transform="translate(0 0.002)"/></svg>