<svg id="Layer_1" data-name="Layer 1" xmlns="http://www.w3.org/2000/svg" xmlns:xlink="http://www.w3.org/1999/xlink" viewBox="0 0 199.651 190.945"><defs><style>.cls-1{fill:url(#linear-gradient);}.cls-2{fill:#fff;}</style><linearGradient id="linear-gradient" x1="0.775" y1="143.558" x2="143.318" y2="1.014" gradientTransform="matrix(0.986, -0.168, -0.168, -0.986, 31.787, 171.668)" gradientUnits="userSpaceOnUse"><stop offset="0" stop-color="#f97556"/><stop offset="1" stop-color="#ff4a73"/></linearGradient></defs><title>chapters-icon-2</title><path class="cls-1" d="M15.779,19.783A73.019,73.019,0,0,0,2.835,47.444C-0.4,61.227-.334,75.565.448,89.7c2.528,45.7,25.213,95.035,75.733,100.63,33.888,3.752,65.958-9.951,88.509-34.121,28.452-30.494,55.884-92,11.874-130.458-28.421-24.835-48.954-7.726-83.8-15.839C76.44,6.112,60.092-3.225,42.954,1.133,31.78,3.977,22.643,10.9,15.779,19.783Z" transform="translate(0 0.002)"/><path class="cls-2" d="M72.635,122.607h5.493l36.179-36.179-5.493-5.493L72.635,117.115v5.493Zm62.15,7.769H64.866V113.894l52.187-52.187a3.884,3.884,0,0,1,5.493,0L133.535,72.7a3.884,3.884,0,0,1,0,5.493L89.117,122.607h45.669v7.769ZM114.307,75.443l5.493,5.493,5.493-5.493L119.8,69.95Z" transform="translate(0 0.002)"/></svg>