<svg id="Layer_1" data-name="Layer 1" xmlns="http://www.w3.org/2000/svg" xmlns:xlink="http://www.w3.org/1999/xlink" viewBox="0 0 199.651 190.945"><defs><style>.cls-1{fill:url(#linear-gradient);}.cls-2{fill:#fff;}</style><linearGradient id="linear-gradient" x1="0.775" y1="143.558" x2="143.318" y2="1.014" gradientTransform="matrix(0.986, -0.168, -0.168, -0.986, 31.787, 171.668)" gradientUnits="userSpaceOnUse"><stop offset="0" stop-color="#f97556"/><stop offset="1" stop-color="#ff4a73"/></linearGradient></defs><title>chapters-icon-1</title><path class="cls-1" d="M15.779,19.783A73.019,73.019,0,0,0,2.835,47.444C-0.4,61.227-.334,75.565.448,89.7c2.528,45.7,25.213,95.035,75.733,100.63,33.888,3.752,65.958-9.951,88.509-34.121,28.452-30.494,55.884-92,11.874-130.458-28.421-24.835-48.954-7.726-83.8-15.839C76.44,6.112,60.092-3.225,42.954,1.133,31.78,3.977,22.643,10.9,15.779,19.783Z" transform="translate(0 0.002)"/><path class="cls-2" d="M68.972,98.8c0-22.426,12.8-41.591,30.854-49.287,18.058,7.7,30.854,26.861,30.854,49.287a58.08,58.08,0,0,1-.97,10.592l8.551,8.075a2.2,2.2,0,0,1,.419,2.658l-11,20.165a2.2,2.2,0,0,1-3.5.5l-9.847-9.847a4.408,4.408,0,0,0-3.116-1.291h-22.8a4.408,4.408,0,0,0-3.116,1.291l-9.847,9.847a2.2,2.2,0,0,1-3.5-.5l-11-20.165a2.2,2.2,0,0,1,.419-2.658l8.551-8.075A58.473,58.473,0,0,1,68.972,98.8Zm6.506,29.514,3.6-3.6a13.223,13.223,0,0,1,9.349-3.874h22.8a13.223,13.223,0,0,1,9.349,3.874l3.6,3.6,4.328-7.934-4.848-4.584a8.815,8.815,0,0,1-2.614-8.022,48.866,48.866,0,0,0,.824-8.974c0-17.058-8.793-32.176-22.039-39.493C86.581,66.62,77.787,81.739,77.787,98.8a48.95,48.95,0,0,0,.824,8.978A8.815,8.815,0,0,1,76,115.8l-4.848,4.58ZM99.826,98.8a8.815,8.815,0,1,1,8.815-8.815A8.815,8.815,0,0,1,99.826,98.8Z" transform="translate(0 0.002)"/></svg>