<svg id="Layer_4" data-name="Layer 4" xmlns="http://www.w3.org/2000/svg" viewBox="0 0 114 44.005"><defs><style>.cls-1{fill:#ffc05a;}.cls-2{fill:#fff;}.cls-3{fill:#262626;}</style></defs><title>logo</title><path class="cls-1" d="M92.068,0A21.907,21.907,0,0,0,72.64,11.812a10.291,10.291,0,0,1,2.469.676,9.709,9.709,0,0,1,3.332,2.3A10.431,10.431,0,0,1,80.6,18.356a13.206,13.206,0,0,1,.777,4.633,14.094,14.094,0,0,1-.735,4.654,10.141,10.141,0,0,1-2.126,3.609,9.559,9.559,0,0,1-3.333,2.316,9.914,9.914,0,0,1-1.468.472A21.954,21.954,0,1,0,92.07,0h0Z" transform="translate(0 0)"/><path class="cls-2" d="M0,6.87l6.092-.981v6.356h7.317V17.33H6.093v7.586a6.046,6.046,0,0,0,.674,3.073,2.891,2.891,0,0,0,2.719,1.148,11.573,11.573,0,0,0,2.024-.184,10.429,10.429,0,0,0,1.9-.512L14.263,33.2a17.164,17.164,0,0,1-2.453.779,14.25,14.25,0,0,1-3.314.328,10.854,10.854,0,0,1-4.131-.68,6.475,6.475,0,0,1-2.611-1.885A7.033,7.033,0,0,1,.39,28.809,17.352,17.352,0,0,1,0,24.994V6.87Z" transform="translate(0 0)"/><path class="cls-2" d="M37.213,33.073a33.561,33.561,0,0,1-4.006.841,32.783,32.783,0,0,1-5.151.39,12.172,12.172,0,0,1-4.559-.739,6.913,6.913,0,0,1-2.882-2.07A8.085,8.085,0,0,1,19.1,28.317a17.108,17.108,0,0,1-.45-4.06V12.242h6.091V23.518a8.766,8.766,0,0,0,.776,4.265A3.085,3.085,0,0,0,28.425,29.1q0.654,0,1.39-.062t1.306-.143V12.242h6.091V33.073h0Z" transform="translate(0 0)"/><path class="cls-2" d="M43.234,6.87l6.091-.981v6.356h7.317V17.33H49.324v7.586A6.046,6.046,0,0,0,50,27.989a2.891,2.891,0,0,0,2.719,1.148,11.573,11.573,0,0,0,2.024-.184,10.429,10.429,0,0,0,1.9-.512L57.5,33.2a17.164,17.164,0,0,1-2.453.779,14.25,14.25,0,0,1-3.314.328,10.854,10.854,0,0,1-4.126-.677A6.475,6.475,0,0,1,45,31.745a7.033,7.033,0,0,1-1.369-2.932A17.352,17.352,0,0,1,43.235,25V6.87h0Z" transform="translate(0 0)"/><path class="cls-2" d="M78.523,31.249a10.141,10.141,0,0,0,2.13-3.609,14.094,14.094,0,0,0,.735-4.651,13.206,13.206,0,0,0-.777-4.634,10.432,10.432,0,0,0-2.167-3.568,9.709,9.709,0,0,0-3.332-2.3,10.291,10.291,0,0,0-2.469-.676,11.957,11.957,0,0,0-1.808-.145,10.767,10.767,0,0,0-4.224.823,9.918,9.918,0,0,0-3.353,2.3,10.528,10.528,0,0,0-2.21,3.568,12.918,12.918,0,0,0-.8,4.632,13.389,13.389,0,0,0,.776,4.654A10.6,10.6,0,0,0,63.2,31.249a9.542,9.542,0,0,0,3.332,2.316,10.97,10.97,0,0,0,4.313.821,11.891,11.891,0,0,0,2.886-.348,9.914,9.914,0,0,0,1.468-.472A9.559,9.559,0,0,0,78.523,31.249Zm-4.477-3.773a3.578,3.578,0,0,1-2.725,1.613,4.464,4.464,0,0,1-.483.051,3.694,3.694,0,0,1-3.226-1.664,7.793,7.793,0,0,1-1.149-4.487,7.594,7.594,0,0,1,1.149-4.453,3.708,3.708,0,0,1,3.139-1.61c0.032,0,.059-0.009.091-0.009a3.674,3.674,0,0,1,3.214,1.62,7.7,7.7,0,0,1,1.115,4.452A7.9,7.9,0,0,1,74.046,27.476Z" transform="translate(0 0)"/><path class="cls-3" d="M99.367,18.242q-0.721-.182-1.7-0.381a10.507,10.507,0,0,0-2.1-.2,9.812,9.812,0,0,0-1.213.089,7.058,7.058,0,0,0-1.068.2v14.6h-5.4V14.464a32.5,32.5,0,0,1,3.422-.965,19.681,19.681,0,0,1,4.4-.454q0.435,0,1.05.055c0.41,0.037.821,0.089,1.231,0.145s0.821,0.134,1.231.218a5.891,5.891,0,0,1,1.05.309Z" transform="translate(0 0)"/></svg>