<svg id="Layer_1" data-name="Layer 1" xmlns="http://www.w3.org/2000/svg" viewBox="0 0 130 50"><defs><style>.cls-1{fill:#fff;}</style></defs><title>logo</title><path class="cls-1" d="M7.532,43.172A26.089,26.089,0,0,1,3.966,39.91a31.279,31.279,0,0,1-2.3-2.843A20.334,20.334,0,0,1,.1,34.366a0.09,0.09,0,0,1-.1-0.08,0.093,0.093,0,0,1,0-.022v-0.2a0.506,0.506,0,0,1,.478-0.532,0.492,0.492,0,0,1,.133.012,8.787,8.787,0,0,1,1.632,2.038,25.355,25.355,0,0,0,4.366,4.6A30.024,30.024,0,0,0,14.4,44.782,30.4,30.4,0,0,0,26.359,46.82a32.378,32.378,0,0,0,9.163-1.345,22.571,22.571,0,0,0,8.352-4.556,22.807,22.807,0,0,0,2.9-3.057,21.382,21.382,0,0,0,2.343-3.73A23.585,23.585,0,0,0,50.644,30.2a13.682,13.682,0,0,0,.561-3.73,2.71,2.71,0,0,0-2.193-2.741,17.977,17.977,0,0,0-5.288-.652,37.294,37.294,0,0,0-6.62.571q-3.155.571-5.6,1.09-1.422,3.628-2.954,7.358t-2.544,6.115q-0.3.836-.611,1.865a8.746,8.746,0,0,0-.361,2.14,18.02,18.02,0,0,0-.2,2.9,6.409,6.409,0,0,1-.761-0.153,4.962,4.962,0,0,1-1.382-.6,4.861,4.861,0,0,1-1.372-1.294,3.581,3.581,0,0,1-.631-2.171,17.36,17.36,0,0,1,.3-2.8q0.31-1.763.811-3.781t1.072-4.077q0.561-2.038,1.072-3.577a1.215,1.215,0,0,1-.861-0.673,13.307,13.307,0,0,1-.921-1.61,16,16,0,0,1-.761-1.814,4.552,4.552,0,0,1-.3-1.4,0.714,0.714,0,0,1,.511-0.826h0.08q1.222-.418,2.494-0.724L26.78,19q0.511-1.345,1-2.487t1-2.385l0.711-2.171q0.31-.927.561-1.865a6.211,6.211,0,0,0,.28-1.508L29.7,8.888l-0.411.2a40.674,40.674,0,0,0-5.748,3.73,35.706,35.706,0,0,0-3.515,3.159A15.106,15.106,0,0,0,18.2,18.213a1.713,1.713,0,0,1-.711.826,7.634,7.634,0,0,1-2.694-2.956,6.677,6.677,0,0,1-.661-2.64,7.306,7.306,0,0,1,.2-1.763,2.284,2.284,0,0,1,.3-0.724A16.181,16.181,0,0,1,15.924,9.6a24.2,24.2,0,0,1,2.694-2.283,38.648,38.648,0,0,1,4.226-2.691A41.347,41.347,0,0,1,28.7,1.947,40.5,40.5,0,0,1,33.71.551,26.085,26.085,0,0,1,39.188-.02,19.821,19.821,0,0,1,44.536.7a14.14,14.14,0,0,1,4.577,2.171,10.923,10.923,0,0,1,3.155,3.577,9.855,9.855,0,0,1,.3,8.7,16.177,16.177,0,0,1-1.833,3.363A9.467,9.467,0,0,1,54.4,21.525a9.476,9.476,0,0,1,1.322,5.493,18.416,18.416,0,0,1-2.984,10.456,25.312,25.312,0,0,1-7.13,7.134,30.86,30.86,0,0,1-9.013,4.077,33.216,33.216,0,0,1-8.552,1.294A33.656,33.656,0,0,1,7.532,43.172ZM47.54,17.479a9.028,9.028,0,0,0,1.933-5.7,5.163,5.163,0,0,0-.811-2.956,6.426,6.426,0,0,0-2-1.916,8.858,8.858,0,0,0-2.644-1.019,12.5,12.5,0,0,0-2.684-.367,18.109,18.109,0,0,0-6.309,1.09q-2.964,1.131-4.687,1.967l1.222,0.469a11.073,11.073,0,0,1,1.883,1.019,8.433,8.433,0,0,1,1.783,1.549,3.212,3.212,0,0,1,.811,2.171,4.579,4.579,0,0,1-.2,1.5q-0.21.571-1,2.334,3-.418,6.309-0.571A26.521,26.521,0,0,1,47.54,17.479Z" transform="translate(0 0.02)"/><path class="cls-1" d="M71.355,17.693a5.093,5.093,0,0,1,4.527,2.691,11.728,11.728,0,0,1,1.472,5.9,16.546,16.546,0,0,1-1.582,7.134,28.388,28.388,0,0,1-3.2,5.442q0.511,0.1.921,0.153a6.181,6.181,0,0,0,.811.051A9.508,9.508,0,0,0,78.3,38.29a8.918,8.918,0,0,1,2-.775h-0.1a1.12,1.12,0,0,0,.31.2,1.21,1.21,0,0,1,.411.826l-0.1-.1a1.711,1.711,0,0,0-.761.52,12.585,12.585,0,0,1-1.582,1.192,11.932,11.932,0,0,1-2.393,1.192,8.734,8.734,0,0,1-3.1.52,10.828,10.828,0,0,1-1.472-.1,7.041,7.041,0,0,1-1.582-.418,11.921,11.921,0,0,1-2.393,2.12,7.223,7.223,0,0,1-4.426,1.4,6.629,6.629,0,0,1-3.615-.938A7.554,7.554,0,0,1,57.1,41.541a11.532,11.532,0,0,1-1.372-3.057,12.026,12.026,0,0,1-.461-3.21,18.516,18.516,0,0,1,1.322-7.2,26.159,26.159,0,0,1,3-5.442,18.815,18.815,0,0,1,3.3-3.577,10.14,10.14,0,0,1,2.243-1.5,1.108,1.108,0,0,1,.611.194,6.832,6.832,0,0,1,1.172,1.61q0.831-.53,1.833-1.152A4.253,4.253,0,0,1,71.355,17.693ZM63.413,42.214a6.281,6.281,0,0,0,1.783-.469,4.738,4.738,0,0,0,2.193-1.712,7.888,7.888,0,0,1-3.515-4.556,19.834,19.834,0,0,1-.861-5.7,11.453,11.453,0,0,1,.05-1.294c0.05-.448.08-0.876,0.15-1.294a17.559,17.559,0,0,0-2.9,4.25,11.581,11.581,0,0,0-1.172,5.177A6.194,6.194,0,0,0,60.258,40.7,4.585,4.585,0,0,0,63.413,42.214Zm6.209-4.77a14.6,14.6,0,0,0,1.632-2.9,17.474,17.474,0,0,0,1.072-3.414,12.338,12.338,0,0,0,.2-3.526,9.972,9.972,0,0,0-.861-3.312,1.993,1.993,0,0,0-1.522.826,8.858,8.858,0,0,0-1.272,2.038,14.434,14.434,0,0,0-.911,2.589,10.671,10.671,0,0,0-.361,2.64,13.364,13.364,0,0,0,.411,2.9,2.686,2.686,0,0,0,1.612,2.191V37.444Z" transform="translate(0 0.02)"/><path class="cls-1" d="M93.647,42.764a9.5,9.5,0,0,1-1.422-5.493,24.162,24.162,0,0,1,.761-5.85,58.923,58.923,0,0,1,1.813-5.86l-2,3.832q-1.072,2.038-2.083,4.148T88.78,37.617q-0.921,1.967-1.632,3.312A21.516,21.516,0,0,1,86.076,42.9a6.89,6.89,0,0,1-1.132,1.355,2.616,2.616,0,0,1-1.472.724,2.875,2.875,0,0,1-3.255-1.814,13.865,13.865,0,0,1-.811-5.1A28.119,28.119,0,0,1,80.318,31a58.077,58.077,0,0,1,2-6.472,37.147,37.147,0,0,1,2.173-4.739,5.7,5.7,0,0,1,1.222-1.814,4.933,4.933,0,0,1,1.682.367,19.777,19.777,0,0,1,2,.876q1.092,0.571,2.313,1.264-0.811,1.763-2.083,3.934t-2.494,4.657A43.665,43.665,0,0,0,85,34.254a16.368,16.368,0,0,0-.911,5.279q3.355-6.115,5.8-10.049t4.126-6.319A44.676,44.676,0,0,1,96.8,19.558q1.112-1.254,1.733-2.038a6.718,6.718,0,0,0,1-1.549,12.758,12.758,0,0,0,.611-2.171,4.223,4.223,0,0,1,.861.469,9.536,9.536,0,0,1,1.582,1.243,17.878,17.878,0,0,1,1.522,1.661,2.861,2.861,0,0,1,.711,1.814,7.574,7.574,0,0,1-.15,1.141,2.332,2.332,0,0,1-.561,1.243q-0.811,1.763-2,3.934t-2.343,4.556a46.536,46.536,0,0,0-1.933,4.77,13.777,13.777,0,0,0-.811,4.454A6.216,6.216,0,0,0,97.272,41a1.1,1.1,0,0,0,1.172.775q1.322,0,3.515-2.12a21.462,21.462,0,0,0,4.226-6.889l0.2-.1a0.876,0.876,0,0,1,.611.306l0.2,0.2a14.6,14.6,0,0,1-.661,2.038,27.7,27.7,0,0,1-1.993,3.944,17.706,17.706,0,0,1-3,3.934,5.582,5.582,0,0,1-4.006,1.763,5.16,5.16,0,0,1-1.933-.418A4.708,4.708,0,0,1,93.647,42.764Z" transform="translate(0 0.02)"/><path class="cls-1" d="M120.426,17.693a5.093,5.093,0,0,1,4.527,2.691,11.728,11.728,0,0,1,1.472,5.9,16.546,16.546,0,0,1-1.582,7.134,28.388,28.388,0,0,1-3.2,5.442q0.511,0.1.921,0.153a6.181,6.181,0,0,0,.811.051,9.508,9.508,0,0,0,4.006-.775,8.917,8.917,0,0,1,2-.775h-0.1a1.12,1.12,0,0,0,.31.2,1.21,1.21,0,0,1,.411.826l-0.1-.1a1.711,1.711,0,0,0-.761.52,12.584,12.584,0,0,1-1.582,1.192,11.932,11.932,0,0,1-2.393,1.192,8.734,8.734,0,0,1-3.1.52,10.828,10.828,0,0,1-1.472-.1A7.041,7.041,0,0,1,119,41.347a11.921,11.921,0,0,1-2.393,2.12,7.223,7.223,0,0,1-4.426,1.4,6.629,6.629,0,0,1-3.615-.938,7.554,7.554,0,0,1-2.393-2.385,11.542,11.542,0,0,1-1.372-3.057,12.047,12.047,0,0,1-.461-3.21,18.516,18.516,0,0,1,1.322-7.2,26.159,26.159,0,0,1,3-5.442,18.8,18.8,0,0,1,3.3-3.577,10.13,10.13,0,0,1,2.243-1.5,1.112,1.112,0,0,1,.561.255,6.852,6.852,0,0,1,1.172,1.61q0.911-.52,1.883-1.141A4.256,4.256,0,0,1,120.426,17.693Zm-7.942,24.521a6.271,6.271,0,0,0,1.783-.469,4.738,4.738,0,0,0,2.193-1.712,7.888,7.888,0,0,1-3.515-4.556,19.855,19.855,0,0,1-.861-5.7q0-.622.05-1.294a7.748,7.748,0,0,1,.15-1.294,17.589,17.589,0,0,0-2.9,4.25,11.57,11.57,0,0,0-1.172,5.177A6.194,6.194,0,0,0,109.33,40.7,4.6,4.6,0,0,0,112.484,42.214Zm6.209-4.77a14.6,14.6,0,0,0,1.632-2.9,17.474,17.474,0,0,0,1.072-3.414,12.338,12.338,0,0,0,.2-3.526,9.972,9.972,0,0,0-.861-3.312,1.993,1.993,0,0,0-1.522.826,8.858,8.858,0,0,0-1.272,2.038,14.434,14.434,0,0,0-.911,2.589,10.671,10.671,0,0,0-.361,2.64,13.364,13.364,0,0,0,.411,2.9,2.686,2.686,0,0,0,1.612,2.191V37.444Z" transform="translate(0 0.02)"/></svg>